<?xml version="1.0" encoding="UTF-8" standalone="no"?>
<!DOCTYPE svg PUBLIC "-//W3C//DTD SVG 1.1//EN"
 "http://www.w3.org/Graphics/SVG/1.1/DTD/svg11.dtd">
<!-- Generated by graphviz version 2.26.0 (20091210.2329)
 -->
<!-- Title: G Pages: 1 -->
<svg width="316pt" height="246pt"
 viewBox="0.00 0.00 316.00 246.00" xmlns="http://www.w3.org/2000/svg" xmlns:xlink="http://www.w3.org/1999/xlink">
<g id="graph1" class="graph" transform="scale(1 1) rotate(0) translate(4 242)">
<title>G</title>
<polygon fill="white" stroke="white" points="-4,5 -4,-242 313,-242 313,5 -4,5"/>
<g id="graph2" class="cluster"><title>cluster_Global</title>
<polyline fill="none" stroke="gray" points="20,-8 288,-8 "/>
<path fill="none" stroke="gray" d="M288,-8C294,-8 300,-14 300,-20"/>
<polyline fill="none" stroke="gray" points="300,-20 300,-218 "/>
<path fill="none" stroke="gray" d="M300,-218C300,-224 294,-230 288,-230"/>
<polyline fill="none" stroke="gray" points="288,-230 20,-230 "/>
<path fill="none" stroke="gray" d="M20,-230C14,-230 8,-224 8,-218"/>
<polyline fill="none" stroke="gray" points="8,-218 8,-20 "/>
<path fill="none" stroke="gray" d="M8,-20C8,-14 14,-8 20,-8"/>
<text text-anchor="middle" x="154" y="-216.1" font-family="Times Roman,serif" font-size="11.00" fill="gray">Global</text>
</g>
<g id="graph3" class="cluster"><title>cluster_\UW</title>
<polyline fill="none" stroke="gray" points="28,-16 104,-16 "/>
<path fill="none" stroke="gray" d="M104,-16C110,-16 116,-22 116,-28"/>
<polyline fill="none" stroke="gray" points="116,-28 116,-187 "/>
<path fill="none" stroke="gray" d="M116,-187C116,-193 110,-199 104,-199"/>
<polyline fill="none" stroke="gray" points="104,-199 28,-199 "/>
<path fill="none" stroke="gray" d="M28,-199C22,-199 16,-193 16,-187"/>
<polyline fill="none" stroke="gray" points="16,-187 16,-28 "/>
<path fill="none" stroke="gray" d="M16,-28C16,-22 22,-16 28,-16"/>
<text text-anchor="middle" x="66" y="-185.1" font-family="Times Roman,serif" font-size="11.00" fill="gray">UW</text>
</g>
<g id="graph4" class="cluster"><title>cluster_\Example</title>
<polyline fill="none" stroke="gray" points="184,-70 280,-70 "/>
<path fill="none" stroke="gray" d="M280,-70C286,-70 292,-76 292,-82"/>
<polyline fill="none" stroke="gray" points="292,-82 292,-187 "/>
<path fill="none" stroke="gray" d="M292,-187C292,-193 286,-199 280,-199"/>
<polyline fill="none" stroke="gray" points="280,-199 184,-199 "/>
<path fill="none" stroke="gray" d="M184,-199C178,-199 172,-193 172,-187"/>
<polyline fill="none" stroke="gray" points="172,-187 172,-82 "/>
<path fill="none" stroke="gray" d="M172,-82C172,-76 178,-70 184,-70"/>
<text text-anchor="middle" x="232" y="-185.1" font-family="Times Roman,serif" font-size="11.00" fill="gray">Example</text>
</g>
<!-- \\UW\\IBBase -->
<g id="node3" class="node"><title>\\UW\\IBBase</title>
<polygon fill="none" stroke="black" points="94,-168 38,-168 38,-132 94,-132 94,-168"/>
<text text-anchor="middle" x="66" y="-147.1" font-family="Courier,monospace" font-size="11.00">IBBase</text>
</g>
<!-- \\UW\\HLBase -->
<g id="node4" class="node"><title>\\UW\\HLBase</title>
<polygon fill="none" stroke="black" points="94,-114 38,-114 38,-78 94,-78 94,-114"/>
<text text-anchor="middle" x="66" y="-93.1" font-family="Courier,monospace" font-size="11.00">HLBase</text>
</g>
<!-- \\UW\\SystemBase -->
<g id="node5" class="node"><title>\\UW\\SystemBase</title>
<polygon fill="none" stroke="black" points="108,-60 24,-60 24,-24 108,-24 108,-60"/>
<text text-anchor="middle" x="66" y="-39.1" font-family="Courier,monospace" font-size="11.00">SystemBase</text>
</g>
<!-- \\Example\\IBHelper -->
<g id="node7" class="node"><title>\\Example\\IBHelper</title>
<polygon fill="none" stroke="black" points="267,-168 197,-168 197,-132 267,-132 267,-168"/>
<text text-anchor="middle" x="232" y="-147.1" font-family="Courier,monospace" font-size="11.00">IBHelper</text>
</g>
<!-- \\Example\\IBHelper&#45;&gt;\\UW\\IBBase -->
<g id="edge5" class="edge"><title>\\Example\\IBHelper&#45;&gt;\\UW\\IBBase</title>
<path fill="none" stroke="black" d="M196.389,-150C169.442,-150 132.472,-150 104.779,-150"/>
<polygon fill="none" stroke="black" points="104.66,-146.5 94.6597,-150 104.66,-153.5 104.66,-146.5"/>
</g>
<!-- \\Example\\EventListener -->
<g id="node8" class="node"><title>\\Example\\EventListener</title>
<polygon fill="none" stroke="black" points="284,-114 180,-114 180,-78 284,-78 284,-114"/>
<text text-anchor="middle" x="232" y="-93.1" font-family="Courier,monospace" font-size="11.00">EventListener</text>
</g>
</g>
</svg>
